<?xml version="1.0" standalone="no"?>
<!DOCTYPE svg PUBLIC "-//W3C//DTD SVG 20010904//EN"
 "http://www.w3.org/TR/2001/REC-SVG-20010904/DTD/svg10.dtd">
<svg version="1.0" xmlns="http://www.w3.org/2000/svg"
 width="1374.000000pt" height="1374.000000pt" viewBox="0 0 1374.000000 1374.000000"
 preserveAspectRatio="xMidYMid meet">
<metadata>
Created by potrace 1.11, written by Peter Selinger 2001-2013
</metadata>
<g transform="translate(0.000000,1374.000000) scale(0.100000,-0.100000)"
fill="#000000" stroke="none">
<path d="M3976 12843 c-169 -481 -213 -568 -358 -715 -256 -258 -625 -352
-978 -249 -75 22 -106 35 -250 103 -320 153 -544 258 -550 258 -9 0 -900 -891
-900 -900 0 -4 34 -79 76 -166 228 -476 253 -532 279 -613 22 -72 26 -89 41
-171 10 -56 6 -222 -6 -291 -37 -209 -128 -385 -275 -533 -139 -141 -226 -186
-635 -330 -151 -54 -284 -101 -295 -106 -11 -4 -44 -16 -72 -26 l-53 -18 0
-637 c0 -500 3 -638 13 -642 6 -2 66 -23 132 -47 66 -23 143 -50 170 -60 28
-10 122 -44 210 -75 230 -81 307 -117 411 -190 158 -113 314 -327 359 -495 1
-3 4 -12 8 -20 32 -83 50 -308 33 -411 -26 -157 -51 -223 -181 -494 -106 -222
-215 -454 -215 -460 0 -12 889 -895 900 -895 12 0 55 19 240 108 132 63 278
132 395 187 320 151 670 136 961 -39 101 -62 216 -169 288 -271 45 -63 114
-198 139 -275 9 -25 34 -97 57 -160 23 -63 46 -126 50 -140 5 -14 32 -90 60
-170 29 -80 54 -153 57 -162 3 -10 15 -18 27 -19 11 0 297 -1 635 -1 l613 -1
13 24 c8 13 35 85 61 159 202 580 229 643 330 777 184 241 470 382 778 382
192 -1 276 -23 526 -142 52 -24 145 -68 205 -97 61 -29 138 -65 173 -81 35
-16 89 -42 121 -58 l58 -30 451 452 451 452 -149 315 c-83 173 -154 324 -159
335 -67 144 -94 259 -95 410 -1 136 5 190 34 292 72 260 255 480 505 610 51
26 383 150 535 199 25 8 54 19 65 24 11 5 56 21 100 36 44 15 84 31 90 36 6 6
10 234 10 640 l0 631 -30 13 c-16 7 -147 54 -290 104 -345 121 -439 157 -505
193 -179 99 -325 250 -415 427 -98 193 -125 415 -80 659 15 77 52 168 195 466
34 72 80 168 102 215 22 47 51 107 64 134 l25 50 -448 448 c-246 246 -451 448
-455 448 -7 0 -80 -34 -270 -124 -54 -25 -142 -67 -195 -92 -54 -25 -124 -59
-156 -75 -401 -199 -851 -129 -1157 180 -80 80 -150 170 -150 191 0 5 -6 15
-13 22 -28 28 -58 108 -235 608 l-80 225 -639 3 -638 2 -119 -337z m899 -2667
c255 -19 569 -122 763 -251 30 -19 56 -35 58 -35 16 0 180 -137 262 -218 183
-182 318 -393 405 -637 33 -92 65 -202 72 -250 2 -11 8 -54 15 -95 29 -186 16
-460 -32 -645 -11 -44 -21 -87 -23 -95 -7 -33 -78 -209 -110 -273 -222 -443
-623 -773 -1100 -902 -49 -13 -103 -26 -120 -29 -147 -23 -208 -28 -325 -29
-122 0 -207 5 -266 17 -12 2 -38 7 -59 10 -117 19 -304 80 -435 143 -104 50
-287 168 -365 235 -353 304 -570 723 -610 1178 -9 102 -4 312 8 375 4 17 9 50
12 75 9 65 49 212 84 307 230 625 826 1073 1491 1119 41 3 76 6 77 7 3 3 114
-1 198 -7z"/>
<path d="M10842 6797 c-24 -67 -57 -160 -74 -207 -90 -250 -288 -394 -529
-384 -105 4 -131 14 -403 144 l-150 71 -239 -239 -240 -240 91 -194 c103 -220
123 -283 123 -383 -1 -194 -117 -384 -282 -462 -63 -31 -399 -153 -419 -153
-7 0 -10 -118 -10 -345 l0 -344 48 -15 c119 -37 313 -109 377 -141 229 -112
342 -387 259 -630 -15 -46 -57 -138 -148 -324 -20 -41 -36 -78 -36 -83 0 -5
106 -115 235 -244 191 -191 239 -234 255 -229 11 4 84 37 163 74 254 121 288
133 389 132 221 -1 421 -133 494 -326 19 -50 115 -318 127 -352 8 -27 16 -33
39 -33 36 -1 225 -1 468 0 132 0 190 3 190 11 0 6 16 55 36 108 20 53 37 101
39 106 1 6 5 17 8 25 3 8 18 49 33 90 73 199 216 326 414 366 34 7 109 7 163
0 66 -9 131 -34 341 -135 82 -39 152 -71 157 -71 7 0 436 425 468 463 9 11 1
37 -40 123 -28 60 -69 147 -91 194 -93 198 -95 355 -5 523 54 103 168 202 277
240 25 9 110 39 190 68 80 28 153 53 163 56 16 5 17 30 17 344 l0 339 -22 10
c-13 5 -70 25 -128 46 -293 102 -349 131 -429 221 -114 128 -157 296 -121 468
6 28 54 142 106 254 l96 204 -239 239 -239 239 -120 -57 c-65 -32 -121 -58
-124 -58 -3 -1 -34 -16 -70 -33 -97 -47 -174 -66 -265 -66 -145 1 -265 52
-370 157 -72 73 -104 135 -179 347 -29 85 -59 166 -65 182 l-11 27 -337 0
-338 0 -43 -123z m511 -1482 c188 -25 391 -125 523 -259 37 -38 134 -161 134
-171 0 -4 8 -19 18 -33 26 -38 69 -142 86 -210 72 -277 17 -561 -153 -790
-337 -454 -1013 -495 -1402 -85 -127 133 -219 317 -246 493 -9 58 -9 221 0
286 40 290 261 579 532 695 116 50 170 66 261 75 33 4 60 8 62 9 5 4 128 -3
185 -10z"/>
<path d="M6980 3962 c-23 -3 -27 -12 -63 -150 -33 -132 -41 -150 -71 -179 -38
-35 -87 -49 -142 -39 -28 6 -58 30 -142 117 -59 60 -112 109 -117 109 -6 0
-36 -16 -68 -35 -31 -19 -83 -49 -115 -66 -78 -44 -132 -78 -132 -85 0 -3 16
-60 34 -127 19 -67 37 -137 40 -154 5 -40 -28 -109 -65 -136 -53 -39 -105 -32
-369 49 -10 3 -26 -14 -48 -53 -17 -32 -46 -83 -64 -113 -17 -30 -44 -77 -59
-105 l-28 -49 108 -106 c59 -58 112 -116 118 -130 18 -42 8 -106 -21 -145 -32
-41 -59 -54 -181 -84 -49 -12 -106 -26 -126 -31 l-35 -10 0 -185 c0 -102 1
-185 1 -185 26 0 287 -76 304 -88 60 -44 79 -96 60 -164 -9 -33 -33 -63 -120
-148 l-108 -106 90 -157 c63 -109 96 -157 108 -157 10 0 71 16 137 35 65 19
131 35 147 35 64 0 124 -45 146 -109 12 -37 11 -41 -31 -191 -17 -58 -31 -116
-31 -129 -2 -25 25 -43 270 -181 l43 -23 108 110 c88 91 115 113 146 118 77
15 141 -12 170 -70 8 -16 30 -90 48 -162 l32 -133 187 0 187 0 33 135 c44 183
68 218 160 235 59 11 103 -16 212 -131 52 -54 98 -99 101 -99 5 0 295 163 315
177 2 2 -13 65 -34 140 -21 76 -37 155 -36 176 1 44 39 100 82 123 42 21 82
17 229 -25 l135 -38 39 66 c21 36 47 81 57 99 11 17 29 49 41 70 55 95 60 76
-50 182 -119 115 -136 140 -135 202 0 49 32 106 72 127 16 9 146 45 197 55 48
10 80 19 90 27 7 6 11 74 12 188 l1 180 -37 10 c-20 6 -81 22 -136 35 -113 29
-153 50 -178 91 -50 87 -32 134 104 266 l109 107 -19 33 c-32 58 -128 222
-148 255 -22 36 -15 36 -159 -7 -60 -18 -128 -33 -150 -34 -89 -5 -158 59
-157 145 0 20 17 92 36 161 20 68 36 128 36 134 0 6 -21 22 -47 36 -27 15 -96
54 -154 88 -58 33 -110 61 -115 61 -5 0 -47 -41 -94 -91 -47 -50 -102 -102
-122 -115 -70 -45 -164 -24 -206 46 -10 16 -33 90 -51 165 -18 74 -38 135 -44
136 -43 2 -317 3 -337 1z m265 -1046 c87 -14 255 -78 255 -97 0 -4 8 -10 18
-13 23 -8 119 -98 159 -151 133 -174 169 -438 89 -637 -152 -375 -572 -536
-929 -357 -228 114 -374 362 -362 614 2 44 6 94 9 110 73 352 409 586 761 531z"/>
</g>
</svg>
